<svg width="49" height="35" viewBox="0 0 49 35" fill="none" xmlns="http://www.w3.org/2000/svg">
<path d="M21.616 6.4C24.304 6.4 26.512 8.608 26.512 11.296V23.152C26.512 25.84 24.304 28.048 21.616 28.048H11.248C8.56 28.048 6.352 25.84 6.352 23.152V11.296C6.352 8.608 8.56 6.4 11.248 6.4H21.616ZM11.248 0.399998C5.248 0.399998 0.4 5.248 0.4 11.248V23.104C0.4 29.104 5.248 33.952 11.248 33.952H21.616C27.616 33.952 32.464 29.104 32.464 23.104V11.248C32.464 5.248 27.616 0.399998 21.616 0.399998H11.248ZM48.7146 11.68C48.7146 10.816 48.6186 10 48.4266 9.232C48.2346 8.464 47.9466 7.696 47.6106 6.976C46.6026 4.864 44.8746 3.136 42.7626 2.08C41.5146 1.456 40.1226 1.072 38.6826 0.975999V0.927999H38.1066H37.3866V6.88H38.1546C38.3466 6.88 38.5386 6.88 38.7306 6.88C40.8426 7.168 42.5226 8.848 42.8106 10.96V34.432H48.8106V11.584L48.7146 11.68Z" fill="white"/>
</svg>
