<svg width="71" height="35" viewBox="0 0 71 35" fill="none" xmlns="http://www.w3.org/2000/svg">
<path d="M21.616 6.4C24.304 6.4 26.512 8.608 26.512 11.296V23.152C26.512 25.84 24.304 28.048 21.616 28.048H11.248C8.56 28.048 6.352 25.84 6.352 23.152V11.296C6.352 8.608 8.56 6.4 11.248 6.4H21.616ZM11.248 0.399998C5.248 0.399998 0.4 5.248 0.4 11.248V23.104C0.4 29.104 5.248 33.952 11.248 33.952H21.616C27.616 33.952 32.464 29.104 32.464 23.104V11.248C32.464 5.248 27.616 0.399998 21.616 0.399998H11.248ZM43.2906 28V24.112C43.2906 22.096 44.8266 20.416 46.7946 20.224H61.0026C61.0506 20.224 61.0986 20.224 61.1466 20.224H61.2906C63.9306 20.128 66.3306 18.976 68.0586 17.2C68.9226 16.336 69.5946 15.328 70.0746 14.224C70.6026 13.024 70.8906 11.728 70.8906 10.336C70.8906 4.864 66.4746 0.447997 61.0026 0.447997H37.3386V6.448H61.0026C63.1626 6.448 64.8906 8.224 64.8906 10.384C64.8906 12.4 63.3546 14.08 61.3386 14.272H61.1946H46.7946C42.8586 14.416 39.4986 16.864 38.0586 20.32C37.5306 21.52 37.2426 22.816 37.2426 24.208V34.096H47.0826H70.7466V28.096L43.2906 28Z" fill="white"/>
</svg>
