<svg width="71" height="35" viewBox="0 0 71 35" fill="none" xmlns="http://www.w3.org/2000/svg">
<path d="M21.616 6.4C24.304 6.4 26.512 8.608 26.512 11.296V23.152C26.512 25.84 24.304 28.048 21.616 28.048H11.248C8.56 28.048 6.352 25.84 6.352 23.152V11.296C6.352 8.608 8.56 6.4 11.248 6.4H21.616ZM11.248 0.399998C5.248 0.399998 0.4 5.248 0.4 11.248V23.104C0.4 29.104 5.248 33.952 11.248 33.952H21.616C27.616 33.952 32.464 29.104 32.464 23.104V11.248C32.464 5.248 27.616 0.399998 21.616 0.399998H11.248ZM70.8906 10.432C70.8906 4.96 66.4746 0.543999 61.0026 0.543999H37.3386V6.544H61.0026C63.1626 6.544 64.9386 8.32 64.9386 10.48C64.9386 12.592 63.2586 14.32 61.1946 14.416C61.1466 14.416 61.0986 14.416 61.0506 14.416H43.3386V20.416H61.0506C61.0986 20.416 61.1466 20.416 61.1946 20.416C63.2586 20.512 64.8906 22.24 64.8906 24.352C64.8906 26.512 63.1146 28.288 60.9546 28.288H37.2906V34.288H60.9546C66.4266 34.288 70.8426 29.872 70.8426 24.4C70.8426 21.712 69.7866 19.264 68.0586 17.488C69.7866 15.712 70.8426 13.264 70.8426 10.576L70.8906 10.432Z" fill="white"/>
</svg>
